<svg width="1448" height="864" viewBox="0 0 1448 864" fill="none" xmlns="http://www.w3.org/2000/svg">
<path d="M691.5 781C899.435 781 1068 763.763 1068 742.5C1068 721.237 899.435 704 691.5 704C483.565 704 315 721.237 315 742.5C315 763.763 483.565 781 691.5 781Z" fill="#6C63FF"/>
<path opacity="0.1" d="M0 828.626C50.4326 843.185 111.96 834.33 169.178 835.355C177.014 835.498 185.3 835.916 191.585 838.427C197.87 840.938 200.961 845.035 205.27 848.516C221.303 861.5 254.164 865.642 282.869 863.439C311.574 861.236 337.906 853.945 364.957 848.384C411.811 838.78 465.36 834.419 511.56 844.881C515.793 845.839 520.256 846.952 524.81 846.566C534.942 845.707 537.956 838.747 545.036 834.76C557.863 827.579 585.606 829.529 591.211 820.068C594.507 814.561 586.927 808.834 578.68 805.046C547.102 790.552 501.928 788.162 460.602 790.398C419.276 792.634 378.629 798.801 337.098 798.823C285.434 798.878 235.412 789.396 184.107 785.519C148.617 782.832 109.869 783.162 76.5852 791.026C40.5436 799.649 32.6042 818.868 0 828.626Z" fill="#6C63FF"/>
<path opacity="0.1" d="M56 487C78.2711 569.157 125.417 640.175 199.928 674.599C354.773 746.137 703.99 709.233 964.623 666.848C1096.32 645.5 1215.86 586.518 1304 499.401L56 487Z" fill="#6C63FF"/>
<path opacity="0.1" d="M1422.19 101.211H1279.24C1275.97 101.211 1272.83 100.09 1270.51 98.0936C1268.19 96.0974 1266.89 93.3899 1266.89 90.5668C1266.89 87.7437 1268.19 85.0363 1270.51 83.04C1272.83 81.0438 1275.97 79.9223 1279.24 79.9223H1303.94C1300.73 79.8332 1297.69 78.6722 1295.46 76.6846C1293.23 74.6971 1291.98 72.039 1291.98 69.2724C1291.98 66.5058 1293.23 63.8476 1295.46 61.8601C1297.69 59.8726 1300.73 58.7115 1303.94 58.6224H1286.3C1283.09 58.5333 1280.05 57.3722 1277.81 55.3847C1275.58 53.3971 1274.33 50.739 1274.33 47.9724C1274.33 45.2058 1275.58 42.5476 1277.81 40.5601C1280.05 38.5726 1283.09 37.4115 1286.3 37.3224H1360.9C1344.35 30.6903 1325.06 25.9705 1302.71 23.4945C1099.28 0.978681 1026.64 15.9008 1001.01 31.1988C969.4 50.1002 934.135 64.0054 896.459 70.7038C770.891 93.0207 536.22 119.881 323.452 62.1042C217.696 33.3653 139.114 81.912 92 163H1447C1445.23 139.434 1439.93 117.681 1430.21 98.6248C1427.99 100.29 1425.14 101.208 1422.19 101.211V101.211Z" fill="#6C63FF"/>
<path opacity="0.1" d="M44.0756 316C38.5847 363.789 40.4521 411.996 49.6288 459.361L1304.79 499C1339.73 464.292 1369.07 425.656 1392 384.147L44.0756 316ZM540.507 418.293H515.806C519.082 418.293 522.223 419.417 524.539 421.417C526.856 423.417 528.157 426.13 528.157 428.959C528.157 431.787 526.856 434.5 524.539 436.5C522.223 438.501 519.082 439.624 515.806 439.624H372.846C369.57 439.624 366.429 438.501 364.112 436.5C361.796 434.5 360.495 431.787 360.495 428.959C360.495 426.13 361.796 423.417 364.112 421.417C366.429 419.417 369.57 418.293 372.846 418.293H397.547C394.338 418.204 391.296 417.04 389.063 415.049C386.83 413.057 385.581 410.394 385.581 407.622C385.581 404.85 386.83 402.186 389.063 400.195C391.296 398.203 394.338 397.04 397.547 396.951H379.899C376.691 396.861 373.649 395.698 371.416 393.706C369.183 391.715 367.934 389.052 367.934 386.279C367.934 383.507 369.183 380.844 371.416 378.852C373.649 376.861 376.691 375.697 379.899 375.608H522.86C526.068 375.697 529.111 376.861 531.344 378.852C533.577 380.844 534.825 383.507 534.825 386.279C534.825 389.052 533.577 391.715 531.344 393.706C529.111 395.698 526.068 396.861 522.86 396.951H540.507C542.163 396.905 543.814 397.146 545.359 397.662C546.905 398.178 548.315 398.956 549.506 399.952C550.696 400.947 551.643 402.139 552.289 403.457C552.936 404.774 553.269 406.191 553.269 407.622C553.269 409.053 552.936 410.469 552.289 411.787C551.643 413.105 550.696 414.297 549.506 415.292C548.315 416.287 546.905 417.066 545.359 417.582C543.814 418.097 542.163 418.339 540.507 418.293V418.293Z" fill="#6C63FF"/>
<path opacity="0.1" d="M1447.37 164L76.8242 192.787C60.1491 229.803 49.1051 271.637 44 315H1423.35C1432.35 289.527 1439.01 263.48 1443.27 237.102C1447.37 211.616 1449.01 186.961 1447.37 164ZM322.268 258.335H297.563C299.185 258.335 300.792 258.611 302.29 259.147C303.789 259.683 305.151 260.468 306.298 261.459C307.445 262.449 308.354 263.625 308.975 264.919C309.596 266.213 309.915 267.6 309.915 269.001C309.915 270.402 309.596 271.789 308.975 273.083C308.354 274.377 307.445 275.553 306.298 276.543C305.151 277.534 303.789 278.319 302.29 278.855C300.792 279.391 299.185 279.667 297.563 279.667H154.581C152.959 279.667 151.353 279.391 149.854 278.855C148.355 278.319 146.994 277.534 145.847 276.543C144.7 275.553 143.79 274.377 143.169 273.083C142.548 271.789 142.229 270.402 142.229 269.001C142.229 267.6 142.548 266.213 143.169 264.919C143.79 263.625 144.7 262.449 145.847 261.459C146.994 260.468 148.355 259.683 149.854 259.147C151.353 258.611 152.959 258.335 154.581 258.335H179.286C176.077 258.246 173.034 257.082 170.801 255.091C168.568 253.099 167.319 250.435 167.319 247.663C167.319 244.891 168.568 242.227 170.801 240.236C173.034 238.244 176.077 237.081 179.286 236.991H161.636C158.427 236.902 155.384 235.739 153.151 233.747C150.918 231.755 149.669 229.092 149.669 226.319C149.669 223.547 150.918 220.884 153.151 218.892C155.384 216.9 158.427 215.737 161.636 215.648H304.618C307.827 215.737 310.87 216.9 313.103 218.892C315.336 220.884 316.585 223.547 316.585 226.319C316.585 229.092 315.336 231.755 313.103 233.747C310.87 235.739 307.827 236.902 304.618 236.991H322.268C323.924 236.945 325.575 237.187 327.121 237.703C328.667 238.218 330.077 238.997 331.268 239.992C332.458 240.988 333.405 242.18 334.051 243.498C334.698 244.815 335.031 246.232 335.031 247.663C335.031 249.094 334.698 250.511 334.051 251.828C333.405 253.146 332.458 254.338 331.268 255.334C330.077 256.329 328.667 257.108 327.121 257.623C325.575 258.139 323.924 258.381 322.268 258.335V258.335Z" fill="#6C63FF"/>
<g clip-path="url(#clip0)">
<path d="M546.453 0C537.969 0.00952843 529.835 3.38401 523.836 9.38311C517.837 15.3822 514.463 23.516 514.453 32V710.428C514.463 718.912 517.837 727.045 523.836 733.044C529.835 739.044 537.969 742.418 546.453 742.428H843.453C851.937 742.418 860.07 739.043 866.069 733.044C872.068 727.045 875.443 718.912 875.453 710.428V32C875.443 23.516 872.068 15.3823 866.069 9.38321C860.07 3.38413 851.937 0.00962088 843.453 0H546.453Z" fill="#E6E6E6"/>
<path d="M855.658 156.982V102.542C838.746 98.6579 822.826 91.3022 808.906 80.941C794.987 70.5799 783.373 57.4395 774.799 42.353L774.798 42.354C770.685 45.4037 765.698 47.045 760.578 47.034H717.35C728.885 75.784 747.701 101.038 771.951 120.315C796.2 139.592 825.047 152.228 855.658 156.982V156.982Z" fill="white"/>
<path d="M855.658 99.4219V47.1241C855.659 43.2984 854.906 39.5099 853.443 35.9751C851.979 32.4404 849.834 29.2287 847.129 26.5235C844.423 23.8183 841.212 21.6726 837.677 20.2091C834.142 18.7456 830.354 17.9929 826.528 17.9941H784.558V23.0441C784.562 26.283 783.909 29.4891 782.637 32.4678C781.365 35.4466 779.502 38.136 777.159 40.3729C785.451 55.1068 796.708 67.9614 810.22 78.1249C823.731 88.2883 839.203 95.54 855.658 99.4219V99.4219Z" fill="white"/>
<path d="M653.769 47.0341H626.738C620.377 47.0322 614.277 44.5038 609.78 40.0049C605.283 35.506 602.757 29.4051 602.758 23.0441V17.9941H563.378C559.553 17.9938 555.764 18.747 552.23 20.2108C548.696 21.6746 545.484 23.8203 542.779 26.5253C540.074 29.2304 537.929 32.4418 536.465 35.9761C535.001 39.5105 534.248 43.2986 534.248 47.1241V695.324C534.244 699.15 534.995 702.939 536.458 706.473C537.92 710.008 540.066 713.22 542.772 715.924C545.478 718.628 548.691 720.772 552.227 722.232C555.763 723.693 559.552 724.441 563.378 724.434H826.528C827.728 724.437 828.927 724.363 830.118 724.214C837.163 723.336 843.646 719.916 848.348 714.596C853.051 709.277 855.65 702.424 855.658 695.324V218.152C759.949 207.062 680.2 138.773 653.769 47.0341Z" fill="white"/>
<path d="M714.069 47.0341H656.929C683.23 137.073 761.609 204.062 855.658 215.102V160.082C824.229 155.276 794.611 142.307 769.765 122.469C744.919 102.631 725.714 76.6195 714.069 47.0341V47.0341Z" fill="white"/>
<path d="M835.612 532.781H565.611C564.286 532.78 563.015 532.252 562.078 531.315C561.14 530.378 560.613 529.107 560.611 527.781V460.806C560.613 459.48 561.14 458.209 562.078 457.272C563.015 456.335 564.286 455.807 565.611 455.806H835.612C836.937 455.807 838.208 456.335 839.146 457.272C840.083 458.209 840.61 459.48 840.612 460.806V527.781C840.61 529.107 840.083 530.378 839.146 531.315C838.208 532.252 836.937 532.78 835.612 532.781ZM565.611 457.806C564.816 457.807 564.053 458.123 563.491 458.685C562.929 459.248 562.612 460.01 562.611 460.806V527.781C562.612 528.577 562.929 529.339 563.491 529.902C564.053 530.464 564.816 530.78 565.611 530.781H835.612C836.407 530.78 837.17 530.464 837.732 529.902C838.295 529.339 838.611 528.577 838.612 527.781V460.806C838.611 460.01 838.295 459.248 837.732 458.685C837.17 458.123 836.407 457.807 835.612 457.806H565.611Z" fill="#E6E6E6"/>
<path d="M600.611 515.293C612.209 515.293 621.611 505.891 621.611 494.293C621.611 482.695 612.209 473.293 600.611 473.293C589.013 473.293 579.611 482.695 579.611 494.293C579.611 505.891 589.013 515.293 600.611 515.293Z" fill="#3F3D56"/>
<path d="M649.111 480.293C648.183 480.293 647.293 480.662 646.636 481.318C645.98 481.975 645.611 482.865 645.611 483.793C645.611 484.721 645.98 485.612 646.636 486.268C647.293 486.924 648.183 487.293 649.111 487.293H814.111C815.04 487.293 815.93 486.924 816.586 486.268C817.243 485.612 817.611 484.721 817.611 483.793C817.611 482.865 817.243 481.975 816.586 481.318C815.93 480.662 815.04 480.293 814.111 480.293H649.111Z" fill="#E6E6E6"/>
<path d="M649.111 501.293C648.183 501.293 647.293 501.662 646.636 502.318C645.98 502.975 645.611 503.865 645.611 504.793C645.611 505.721 645.98 506.612 646.636 507.268C647.293 507.924 648.183 508.293 649.111 508.293H814.111C815.04 508.293 815.93 507.924 816.586 507.268C817.243 506.612 817.611 505.721 817.611 504.793C817.611 503.865 817.243 502.975 816.586 502.318C815.93 501.662 815.04 501.293 814.111 501.293H649.111Z" fill="#E6E6E6"/>
<path d="M835.612 644.781H565.611C564.286 644.78 563.015 644.252 562.078 643.315C561.14 642.378 560.613 641.107 560.611 639.781V572.806C560.613 571.48 561.14 570.209 562.078 569.272C563.015 568.335 564.286 567.807 565.611 567.806H835.612C836.937 567.807 838.208 568.335 839.146 569.272C840.083 570.209 840.61 571.48 840.612 572.806V639.781C840.61 641.107 840.083 642.378 839.146 643.315C838.208 644.252 836.937 644.78 835.612 644.781V644.781ZM565.611 569.806C564.816 569.807 564.053 570.123 563.491 570.685C562.929 571.248 562.612 572.01 562.611 572.806V639.781C562.612 640.577 562.929 641.339 563.491 641.902C564.053 642.464 564.816 642.78 565.611 642.781H835.612C836.407 642.78 837.17 642.464 837.732 641.902C838.295 641.339 838.611 640.577 838.612 639.781V572.806C838.611 572.01 838.295 571.248 837.732 570.685C837.17 570.123 836.407 569.807 835.612 569.806H565.611Z" fill="#E6E6E6"/>
<path d="M600.611 627.293C612.209 627.293 621.611 617.891 621.611 606.293C621.611 594.695 612.209 585.293 600.611 585.293C589.013 585.293 579.611 594.695 579.611 606.293C579.611 617.891 589.013 627.293 600.611 627.293Z" fill="#3F3D56"/>
<path d="M649.111 592.293C648.183 592.293 647.293 592.662 646.636 593.318C645.98 593.975 645.611 594.865 645.611 595.793C645.611 596.721 645.98 597.612 646.636 598.268C647.293 598.924 648.183 599.293 649.111 599.293H814.111C815.04 599.293 815.93 598.924 816.586 598.268C817.243 597.612 817.611 596.721 817.611 595.793C817.611 594.865 817.243 593.975 816.586 593.318C815.93 592.662 815.04 592.293 814.111 592.293H649.111Z" fill="#E6E6E6"/>
<path d="M649.111 613.293C648.183 613.293 647.293 613.662 646.636 614.318C645.98 614.975 645.611 615.865 645.611 616.793C645.611 617.721 645.98 618.612 646.636 619.268C647.293 619.924 648.183 620.293 649.111 620.293H814.111C815.04 620.293 815.93 619.924 816.586 619.268C817.243 618.612 817.611 617.721 817.611 616.793C817.611 615.865 817.243 614.975 816.586 614.318C815.93 613.662 815.04 613.293 814.111 613.293H649.111Z" fill="#E6E6E6"/>
<path d="M694.929 393.796C682.452 393.801 670.096 391.348 658.568 386.575C647.04 381.803 636.565 374.806 627.742 365.983C618.92 357.16 611.922 346.686 607.15 335.157C602.378 323.629 599.924 311.273 599.929 298.796C599.929 298.598 599.93 298.388 599.941 298.189C600.232 246.164 642.844 203.796 694.929 203.796C716.36 203.799 737.161 211.047 753.953 224.363C770.745 237.679 782.542 256.281 787.428 277.147C792.314 298.014 790.003 319.919 780.869 339.307C771.735 358.694 756.316 374.423 737.114 383.941C724.01 390.462 709.566 393.836 694.929 393.796V393.796ZM694.929 205.796C670.376 205.851 646.836 215.592 629.424 232.904C612.012 250.216 602.135 273.699 601.939 298.252C601.929 298.464 601.929 298.635 601.929 298.796C601.923 322.381 610.877 345.087 626.98 362.319C643.083 379.551 665.131 390.021 688.662 391.61C712.193 393.2 735.449 385.79 753.723 370.88C771.996 355.97 783.923 334.674 787.088 311.303C788.876 298.154 787.829 284.773 784.016 272.062C780.203 259.351 773.713 247.603 764.983 237.609C756.253 227.614 745.484 219.604 733.401 214.117C721.318 208.63 708.2 205.793 694.929 205.796V205.796Z" fill="#E6E6E6"/>
<path d="M737.952 303.395L672.93 265.855C672.626 265.679 672.281 265.587 671.93 265.587C671.579 265.587 671.234 265.679 670.93 265.855C670.626 266.03 670.373 266.283 670.198 266.587C670.022 266.891 669.93 267.236 669.93 267.587V342.668C669.93 343.019 670.022 343.364 670.198 343.668C670.373 343.972 670.626 344.225 670.93 344.4C671.234 344.576 671.579 344.668 671.93 344.668C672.281 344.668 672.626 344.576 672.93 344.4L737.952 306.859C738.256 306.684 738.509 306.432 738.684 306.127C738.86 305.823 738.952 305.479 738.952 305.127C738.952 304.776 738.86 304.431 738.684 304.127C738.509 303.823 738.256 303.571 737.952 303.395L672.93 265.855C672.626 265.679 672.281 265.587 671.93 265.587C671.579 265.587 671.234 265.679 670.93 265.855C670.626 266.03 670.373 266.283 670.198 266.587C670.022 266.891 669.93 267.236 669.93 267.587V342.668C669.93 343.019 670.022 343.364 670.198 343.668C670.373 343.972 670.626 344.225 670.93 344.4C671.234 344.576 671.579 344.668 671.93 344.668C672.281 344.668 672.626 344.576 672.93 344.4L737.952 306.859C738.256 306.684 738.509 306.432 738.684 306.127C738.86 305.823 738.952 305.479 738.952 305.127C738.952 304.776 738.86 304.431 738.684 304.127C738.509 303.823 738.256 303.571 737.952 303.395Z" fill="#FF6363"/>
<path d="M1091.43 290.296L1047.43 295.296C1048.03 281.781 1046.89 269.174 1042.43 258.296L1078.43 245.296C1075.2 258.755 1081.26 274.106 1091.43 290.296Z" fill="#FFB8B8"/>
<path d="M1096.74 440.381L1110.99 465.824C1111.84 467.353 1112.39 469.037 1112.59 470.778C1112.79 472.519 1112.64 474.282 1112.15 475.965C1111.66 477.649 1110.85 479.218 1109.75 480.582C1108.65 481.947 1107.29 483.079 1105.74 483.912V483.912C1103.82 484.951 1101.68 485.498 1099.49 485.504C1097.31 485.511 1095.16 484.977 1093.23 483.949C1091.31 482.922 1089.67 481.434 1088.45 479.617C1087.24 477.8 1086.5 475.712 1086.29 473.539L1083.98 449.224L1076.08 356.415L1062.61 295.369L1090.58 287.43L1103.59 356.078L1096.74 440.381Z" fill="#FFB8B8"/>
<path d="M1120.43 711.296L1102.43 710.296L1062.43 532.296L977.43 711.296L959.43 710.296L1011.43 434.296L1012.43 384.296L1077.43 380.296C1101.72 407.013 1115.48 434.643 1117.43 463.296L1120.43 711.296Z" fill="#2F2E41"/>
<path d="M975.969 742.55C972.562 744.105 969.287 731.133 966.834 734.331C958.599 745.068 939.424 741.7 939.51 740.46C938.863 740.252 938.264 739.914 937.751 739.468C937.238 739.022 936.82 738.476 936.524 737.864C936.228 737.252 936.059 736.585 936.028 735.906C935.997 735.227 936.104 734.548 936.343 733.911V733.911C936.629 733.149 937.095 732.468 937.703 731.926C938.31 731.384 939.04 730.998 939.829 730.8L948.379 728.663L961.803 705.056L975.506 704.13C978.561 708.025 980.694 712.562 981.742 717.399C982.791 722.237 982.73 727.249 981.562 732.06C980.318 737.135 978.398 741.441 975.969 742.55Z" fill="#2F2E41"/>
<path d="M1118.05 742.55C1114.64 744.105 1111.37 731.134 1108.91 734.331C1099.43 746.695 1080.95 742.428 1081.59 740.46C1080.94 740.252 1080.34 739.914 1079.83 739.468C1079.32 739.022 1078.9 738.476 1078.6 737.864C1078.31 737.251 1078.14 736.585 1078.11 735.906C1078.08 735.227 1078.18 734.548 1078.42 733.911V733.911C1078.71 733.149 1079.18 732.468 1079.78 731.926C1080.39 731.384 1081.12 730.998 1081.91 730.8L1090.46 728.663L1103.88 705.056L1118.51 703.204L1118.88 703.808C1121.71 708.367 1123.53 713.476 1124.23 718.794C1124.93 724.113 1124.48 729.519 1122.92 734.652C1121.71 738.551 1120.05 741.636 1118.05 742.55Z" fill="#2F2E41"/>
<path d="M1051.43 267.296C1068.55 267.296 1082.43 253.417 1082.43 236.296C1082.43 219.175 1068.55 205.296 1051.43 205.296C1034.31 205.296 1020.43 219.175 1020.43 236.296C1020.43 253.417 1034.31 267.296 1051.43 267.296Z" fill="#FFB8B8"/>
<path d="M1079.43 385.296L1012.43 389.296L1006.43 351.296C1000.22 334.215 1007.98 318.522 1020.43 303.296L1046.43 274.296L1082.43 273.296C1087.28 274.888 1091.57 277.824 1094.81 281.764C1098.05 285.703 1100.1 290.482 1100.73 295.544C1103.32 316.803 1099.44 338.351 1089.59 357.37L1079.43 385.296Z" fill="#FF6363"/>
<path d="M1006.43 470.296L1011.22 499.062C1011.51 500.791 1011.45 502.559 1011.05 504.265C1010.65 505.971 1009.91 507.58 1008.88 508.999C1007.86 510.417 1006.55 511.617 1005.06 512.528C1003.56 513.439 1001.9 514.044 1000.16 514.306V514.306C998.006 514.633 995.8 514.421 993.744 513.687C991.687 512.954 989.845 511.723 988.38 510.104C986.916 508.485 985.875 506.529 985.351 504.409C984.826 502.29 984.835 500.074 985.376 497.959L991.43 474.296L1015.43 384.296L1023.43 322.296L1052.43 324.296L1041.43 393.296L1006.43 470.296Z" fill="#FFB8B8"/>
<path d="M1088.61 355.796H1087.89C1074.37 344.079 1062.62 330.944 1072.1 314.5C1064.06 294.073 1055.08 272.86 1055.63 259.736C1056.03 250.029 1053.2 240.359 1046.88 232.979C1038.33 222.989 1036.43 218.527 1020.81 222.305C1020.75 218.293 1021.51 214.312 1023.04 210.604C1024.57 206.895 1026.84 203.537 1029.71 200.732C1032.58 197.927 1035.99 195.735 1039.73 194.288C1043.47 192.841 1047.47 192.17 1051.48 192.316L1061.24 192.671C1068.7 192.943 1092.56 195.994 1097.68 200.921C1100.28 203.502 1102.24 206.649 1103.42 210.115C1104.6 213.582 1104.97 217.274 1104.49 220.904C1103.53 229.049 1106.1 236.241 1112.96 242.272C1126.11 255.864 1131.53 269.967 1124.08 284.922C1118.45 300.754 1118.72 313.786 1133.23 320.051C1137.94 338.136 1107.29 355.796 1088.61 355.796Z" fill="#2F2E41"/>
<path d="M1055.43 334.296C1043.02 324.8 1030.68 324.05 1018.43 333.296L1021.77 295.323C1021.68 289.956 1023.68 284.765 1027.35 280.848C1031.02 276.932 1036.08 274.599 1041.44 274.343V274.343C1044.26 274.209 1047.07 274.655 1049.71 275.652C1052.36 276.65 1054.76 278.178 1056.79 280.144C1058.82 282.109 1060.42 284.468 1061.5 287.077C1062.58 289.686 1063.11 292.488 1063.06 295.311L1055.43 334.296Z" fill="#FF6363"/>
<path d="M1051.93 249.796C1054.14 249.796 1055.93 246.438 1055.93 242.296C1055.93 238.154 1054.14 234.796 1051.93 234.796C1049.72 234.796 1047.93 238.154 1047.93 242.296C1047.93 246.438 1049.72 249.796 1051.93 249.796Z" fill="#FFB8B8"/>
<path d="M1060.93 225.062V191.796C1060.93 191.001 1060.61 190.237 1060.05 189.675C1059.49 189.112 1058.73 188.796 1057.93 188.796H1051.93C1051.13 188.796 1050.37 189.112 1049.81 189.675C1049.25 190.237 1048.93 191.001 1048.93 191.796V223.056C1044.49 223.776 1040.46 226.048 1037.54 229.468C1034.62 232.888 1033.02 237.233 1033.01 241.727C1033 246.222 1034.58 250.574 1037.48 254.008C1040.38 257.442 1044.41 259.734 1048.84 260.475C1053.27 261.216 1057.83 260.359 1061.69 258.055C1065.54 255.752 1068.46 252.152 1069.91 247.899C1071.36 243.645 1071.26 239.014 1069.61 234.831C1067.97 230.649 1064.89 227.186 1060.93 225.062V225.062Z" fill="#FF6363"/>
<path d="M1052.93 250.796C1057.9 250.796 1061.93 246.767 1061.93 241.796C1061.93 236.826 1057.9 232.796 1052.93 232.796C1047.96 232.796 1043.93 236.826 1043.93 241.796C1043.93 246.767 1047.96 250.796 1052.93 250.796Z" fill="white"/>
</g>
<path d="M433.639 622.074C433.138 622.074 432.637 622.047 432.139 621.994L317.158 609.717C316.309 609.626 315.487 609.369 314.737 608.961C313.988 608.552 313.326 608 312.79 607.336C312.254 606.672 311.854 605.908 311.613 605.089C311.372 604.271 311.294 603.412 311.385 602.563L312.952 587.887L313.449 587.94L312.952 587.887C313.137 586.174 313.994 584.604 315.335 583.522C316.676 582.439 318.391 581.933 320.105 582.114L435.086 594.392C438.617 594.769 441.869 596.485 444.173 599.187C446.477 601.889 447.657 605.372 447.472 608.918C447.287 612.464 445.749 615.804 443.176 618.252C440.603 620.699 437.19 622.067 433.639 622.074V622.074Z" fill="#FF6363"/>
<path d="M438.358 721.797C437.664 721.797 436.973 721.685 436.314 721.466L319.502 682.897C317.866 682.355 316.512 681.186 315.737 679.647C314.962 678.108 314.829 676.324 315.368 674.687L319.995 660.672L320.47 660.829L319.995 660.672C320.536 659.035 321.705 657.68 323.244 656.905C324.784 656.129 326.569 655.997 328.206 656.538L445.017 695.107C446.653 695.649 448.007 696.818 448.782 698.357C449.557 699.896 449.69 701.68 449.152 703.317L444.524 717.333C444.095 718.63 443.269 719.759 442.162 720.56C441.055 721.362 439.725 721.794 438.358 721.797V721.797Z" fill="#FF6363"/>
<path d="M283.789 727.104C283.675 727.104 283.56 727.101 283.445 727.094C282.592 727.053 281.756 726.842 280.985 726.475C280.214 726.108 279.523 725.592 278.953 724.956L269.07 713.994C267.917 712.713 267.32 711.027 267.409 709.306C267.498 707.585 268.266 705.97 269.544 704.814L321.97 657.545C323.25 656.391 324.936 655.792 326.658 655.881C328.379 655.97 329.995 656.74 331.15 658.02L341.033 668.982C342.186 670.263 342.783 671.949 342.694 673.67C342.605 675.391 341.837 677.006 340.559 678.162L288.134 725.431C286.944 726.51 285.395 727.106 283.789 727.104V727.104Z" fill="#FF6363"/>
<path d="M447.415 555.616C475.582 555.616 498.415 532.783 498.415 504.616C498.415 476.45 475.582 453.616 447.415 453.616C419.249 453.616 396.415 476.45 396.415 504.616C396.415 532.783 419.249 555.616 447.415 555.616Z" fill="#FF6363"/>
<path d="M472.296 727.116H364.175C363.032 727.121 361.908 726.823 360.918 726.253C359.927 725.684 359.104 724.863 358.533 723.873C357.962 722.884 357.662 721.761 357.664 720.618C357.666 719.475 357.97 718.354 358.545 717.366L441.786 573.189C442.356 572.201 443.177 571.381 444.165 570.81C445.153 570.24 446.274 569.939 447.415 569.939C448.556 569.939 449.677 570.24 450.665 570.81C451.653 571.381 452.474 572.201 453.044 573.189L507.105 666.825C510.633 672.935 512.49 679.867 512.49 686.922C512.49 693.978 510.633 700.909 507.105 707.019C503.577 713.129 498.503 718.203 492.393 721.731C486.283 725.259 479.351 727.116 472.296 727.116V727.116Z" fill="#2F2E41"/>
<path d="M405.377 524.025C402.072 523.934 397.957 523.819 394.788 521.503C393.844 520.786 393.068 519.87 392.516 518.821C391.963 517.772 391.646 516.615 391.587 515.431C391.53 514.589 391.668 513.746 391.991 512.966C392.313 512.187 392.812 511.492 393.448 510.938C395.103 509.538 397.52 509.21 400.126 509.976L397.427 490.25L399.408 489.979L402.582 513.169L400.927 512.41C399.009 511.53 396.375 511.082 394.739 512.465C394.337 512.826 394.024 513.276 393.824 513.778C393.624 514.28 393.543 514.822 393.586 515.36C393.635 516.242 393.872 517.102 394.283 517.884C394.694 518.665 395.269 519.349 395.967 519.888C398.434 521.69 401.714 521.922 405.433 522.026L405.377 524.025Z" fill="#2F2E41"/>
<path d="M421.628 491.952H410.856V493.952H421.628V491.952Z" fill="#2F2E41"/>
<path d="M477.653 444.469C479.07 438.68 481.695 433.257 485.357 428.556C489.019 423.855 493.634 419.981 498.899 417.191C504.299 414.416 510.25 412.878 516.318 412.69C522.387 412.501 528.421 413.667 533.983 416.102C539.678 418.542 544.737 422.259 548.767 426.965C552.798 431.672 555.692 437.242 557.226 443.245C558.806 449.285 559.025 455.6 557.866 461.734C556.444 468.231 553.687 474.362 549.768 479.736C545.817 485.457 541.173 490.648 536.909 496.13C532.628 501.622 528.731 507.403 525.243 513.43C514.735 531.589 508.072 551.714 505.668 572.557C504.855 578.851 504.701 585.214 505.209 591.541C506.357 603.827 511.117 615.861 522.042 622.546C527.85 626.101 534.553 627.936 541.184 629.22C548.627 630.797 556.244 631.392 563.841 630.991C576.685 630.078 589.537 624.718 596.996 613.804C598.647 611.373 599.939 608.718 600.834 605.919C601.428 604.077 598.532 603.288 597.941 605.121C593.99 617.369 582.001 624.918 569.867 627.22C562.31 628.486 554.595 628.479 547.041 627.198C540.178 626.173 533.107 624.755 526.817 621.727C521.103 619.062 516.363 614.68 513.258 609.191C510.451 603.893 508.752 598.079 508.264 592.103C506.927 579.019 509.104 565.474 512.364 552.819C515.852 539.274 521.202 526.279 528.262 514.205C531.789 508.173 535.737 502.396 540.077 496.919C544.374 491.502 548.958 486.293 552.834 480.554C556.66 475.14 559.356 469.011 560.759 462.531C561.953 456.315 561.843 449.918 560.434 443.746C559.074 437.656 556.414 431.931 552.636 426.964C548.858 421.998 544.05 417.907 538.543 414.972C527.735 409.271 514.567 407.906 503.006 412.107C491.787 416.246 482.656 424.646 477.596 435.481C476.379 438.11 475.429 440.853 474.761 443.671C474.319 445.549 477.211 446.35 477.653 444.469V444.469Z" fill="#2F2E41"/>
<path d="M487.401 446.908C489.282 441.548 493.072 437.069 498.046 434.327C503.021 431.586 508.832 430.774 514.368 432.046C516.246 432.486 517.047 429.594 515.165 429.154C508.859 427.607 502.202 428.493 496.52 431.635C490.838 434.778 486.549 439.946 484.508 446.11C483.879 447.94 486.776 448.725 487.401 446.908Z" fill="#2F2E41"/>
<path d="M482.798 461.078C482.054 461.078 481.317 460.926 480.634 460.631L466.853 454.708C466.189 454.423 465.588 454.01 465.084 453.492C464.58 452.975 464.183 452.363 463.916 451.692C463.648 451.021 463.515 450.304 463.525 449.582C463.534 448.86 463.686 448.147 463.971 447.483C464.257 446.819 464.67 446.219 465.187 445.715C465.705 445.211 466.316 444.814 466.987 444.546C467.658 444.278 468.375 444.146 469.097 444.155C469.819 444.165 470.533 444.316 471.196 444.602L484.978 450.525C486.142 451.025 487.097 451.912 487.683 453.035C488.268 454.159 488.448 455.45 488.192 456.691C487.936 457.931 487.259 459.045 486.276 459.845C485.293 460.644 484.065 461.08 482.798 461.078V461.078Z" fill="#2F2E41"/>
<path d="M462.614 487.03L456.365 446.54C456.103 444.847 453.52 443.84 450.595 444.292L438.458 446.165C435.533 446.616 433.372 448.355 433.634 450.048L439.617 488.817C435.9 491.609 433.189 495.533 431.891 499.997C430.594 504.462 430.78 509.227 432.422 513.577C434.064 517.927 437.073 521.627 440.997 524.121C444.921 526.615 449.548 527.768 454.183 527.408C458.819 527.048 463.212 525.193 466.704 522.123C470.195 519.053 472.597 514.933 473.547 510.382C474.497 505.83 473.945 501.094 471.974 496.883C470.002 492.672 466.718 489.215 462.614 487.03V487.03Z" fill="#CCCCCC"/>
<path d="M452.5 515.46C457.725 515.46 461.96 511.225 461.96 506C461.96 500.775 457.725 496.54 452.5 496.54C447.275 496.54 443.04 500.775 443.04 506C443.04 511.225 447.275 515.46 452.5 515.46Z" fill="#FF6584"/>
<path d="M288.132 621.861C285.259 621.868 282.48 620.839 280.305 618.963L223.471 569.861C222.28 568.833 221.303 567.579 220.597 566.173C219.891 564.767 219.468 563.235 219.354 561.666C219.239 560.096 219.435 558.52 219.93 557.026C220.424 555.532 221.209 554.15 222.237 552.959C222.428 552.739 222.626 552.526 222.832 552.32L281.712 493.44C282.824 492.328 284.145 491.445 285.599 490.842C287.053 490.24 288.611 489.93 290.185 489.93C291.759 489.93 293.317 490.24 294.771 490.842C296.225 491.445 297.546 492.328 298.658 493.44L351.626 546.408C353.87 548.657 355.13 551.704 355.13 554.881C355.13 558.058 353.87 561.105 351.626 563.354L296.612 618.368C295.498 619.48 294.175 620.36 292.72 620.96C291.265 621.559 289.705 621.865 288.132 621.861V621.861ZM223.539 553.027L224.246 553.734C224.074 553.906 223.909 554.084 223.751 554.267C222.893 555.259 222.24 556.41 221.828 557.655C221.416 558.899 221.253 560.213 221.348 561.52C221.444 562.828 221.796 564.104 222.384 565.275C222.973 566.447 223.786 567.491 224.778 568.348L281.612 617.449C283.525 619.089 285.984 619.949 288.502 619.857C291.02 619.766 293.41 618.729 295.198 616.954L350.212 561.94C352.081 560.067 353.131 557.528 353.131 554.881C353.131 552.234 352.081 549.696 350.212 547.822L297.244 494.854C296.317 493.927 295.217 493.192 294.006 492.69C292.794 492.188 291.496 491.93 290.185 491.93C288.874 491.93 287.576 492.188 286.365 492.69C285.153 493.192 284.053 493.927 283.126 494.854L224.246 553.734L223.539 553.027Z" fill="#3F3D56"/>
<path d="M284.718 604.263L238.737 562.415L291.685 509.467L335.599 553.381L284.718 604.263ZM241.633 562.347L284.653 601.499L332.771 553.381L291.685 512.295L241.633 562.347Z" fill="#3F3D56"/>
<path d="M288.185 580.992C301.777 580.992 312.796 569.973 312.796 556.381C312.796 542.789 301.777 531.77 288.185 531.77C274.593 531.77 263.574 542.789 263.574 556.381C263.574 569.973 274.593 580.992 288.185 580.992Z" fill="#CCCCCC"/>
<path d="M300.285 551.49C303.22 554.248 303.375 564.175 298.894 568.945C294.413 573.714 286.992 571.52 284.057 568.762C281.122 566.004 283.784 563.727 288.265 558.958C292.747 554.189 297.35 548.733 300.285 551.49Z" fill="white"/>
<path d="M275.3 564.074C279.328 564.074 282.593 560.81 282.593 556.782C282.593 552.755 279.328 549.49 275.3 549.49C271.273 549.49 268.008 552.755 268.008 556.782C268.008 560.81 271.273 564.074 275.3 564.074Z" fill="#3F3D56"/>
<path d="M288.408 550.124C292.435 550.124 295.7 546.86 295.7 542.832C295.7 538.805 292.435 535.54 288.408 535.54C284.381 535.54 281.116 538.805 281.116 542.832C281.116 546.86 284.381 550.124 288.408 550.124Z" fill="#3F3D56"/>
<path d="M453.402 738.849C451.771 738.846 450.2 738.23 449.002 737.124C447.804 736.017 447.066 734.5 446.934 732.875L437.576 617.62C437.429 615.803 437.641 613.975 438.2 612.24C438.758 610.505 439.654 608.897 440.834 607.508C442.014 606.119 443.457 604.977 445.079 604.145C446.701 603.313 448.47 602.81 450.287 602.662C452.104 602.515 453.932 602.726 455.667 603.285C457.402 603.844 459.01 604.739 460.398 605.92C461.787 607.1 462.93 608.542 463.762 610.164C464.593 611.786 465.097 613.556 465.245 615.373L474.602 730.628C474.74 732.346 474.19 734.048 473.074 735.362C471.958 736.675 470.367 737.492 468.65 737.633L453.939 738.828C453.759 738.842 453.58 738.849 453.402 738.849Z" fill="#FF6363"/>
<path opacity="0.1" d="M1136 756.89C1156.68 764.38 1181.91 759.82 1205.38 760.35C1208.59 760.43 1211.99 760.64 1214.57 761.93C1217.15 763.22 1218.41 765.32 1220.18 767.12C1226.75 773.79 1240.18 775.94 1252 774.8C1263.82 773.66 1274.57 769.92 1285.69 767.07C1304.9 762.13 1326.85 759.89 1345.8 765.27C1347.54 765.9 1349.38 766.192 1351.23 766.13C1355.39 765.69 1356.62 762.13 1359.53 760.07C1364.77 756.38 1376.16 757.38 1378.47 752.51C1379.82 749.66 1376.71 746.74 1373.33 744.79C1360.33 737.34 1341.86 736.11 1324.91 737.26C1307.96 738.41 1291.27 741.58 1274.27 741.59C1253.05 741.59 1232.54 736.73 1211.53 734.73C1196.97 733.35 1181.08 733.53 1167.43 737.59C1152.63 742 1149.37 751.88 1136 756.89Z" fill="#6C63FF"/>
<path d="M1369.81 737.34C1371.64 735.844 1372.98 733.829 1373.64 731.56C1374.14 729.26 1373.16 726.5 1370.96 725.66C1368.5 724.72 1365.87 726.43 1363.88 728.15C1361.89 729.87 1359.6 731.84 1356.99 731.47C1358.33 730.256 1359.34 728.713 1359.91 726.994C1360.48 725.274 1360.59 723.436 1360.23 721.66C1360.12 720.923 1359.81 720.23 1359.33 719.66C1357.97 718.2 1355.49 718.83 1353.86 719.98C1348.66 723.63 1347.21 730.7 1347.18 737.05C1346.65 734.76 1347.1 732.37 1347.08 730.05C1347.06 727.73 1346.42 725.05 1344.44 723.83C1343.21 723.17 1341.83 722.843 1340.44 722.88C1338.1 722.79 1335.5 723.03 1333.9 724.74C1331.9 726.86 1332.43 730.43 1334.16 732.74C1335.89 735.05 1338.51 736.55 1340.93 738.16C1342.87 739.314 1344.52 740.89 1345.76 742.77C1345.91 743.035 1346.03 743.313 1346.12 743.6H1360.77C1364.05 741.928 1367.09 739.823 1369.81 737.34V737.34Z" fill="#6C63FF"/>
<path d="M1253.37 753.07C1253.37 753.07 1239.32 705.34 1256 670.24C1263.1 655.559 1265.24 638.972 1262.1 622.97C1260.55 615.385 1258.31 607.958 1255.41 600.78" stroke="#535461" stroke-width="2" stroke-miterlimit="10"/>
<path d="M1265.79 578.59C1265.79 584.43 1255.2 601.39 1255.2 601.39C1255.2 601.39 1244.61 584.39 1244.61 578.59C1244.61 575.781 1245.73 573.088 1247.71 571.102C1249.7 569.116 1252.39 568 1255.2 568C1258.01 568 1260.7 569.116 1262.69 571.102C1264.67 573.088 1265.79 575.781 1265.79 578.59Z" fill="#6C63FF"/>
<path d="M1283.27 610.97C1280.09 615.88 1261.99 624.36 1261.99 624.36C1261.99 624.36 1262.32 604.36 1265.49 599.47C1266.23 598.27 1267.2 597.229 1268.35 596.409C1269.5 595.589 1270.8 595.007 1272.17 594.696C1273.55 594.385 1274.97 594.352 1276.36 594.599C1277.75 594.846 1279.07 595.368 1280.26 596.134C1281.44 596.9 1282.46 597.894 1283.26 599.059C1284.05 600.224 1284.6 601.536 1284.88 602.918C1285.16 604.3 1285.17 605.724 1284.89 607.107C1284.61 608.49 1284.06 609.803 1283.27 610.97V610.97Z" fill="#6C63FF"/>
<path d="M1282.52 666.34C1277.3 668.97 1257.4 667.15 1257.4 667.15C1257.4 667.15 1267.77 650.07 1272.99 647.43C1274.24 646.771 1275.6 646.367 1277 646.241C1278.41 646.115 1279.82 646.271 1281.16 646.699C1282.5 647.126 1283.75 647.817 1284.82 648.732C1285.89 649.646 1286.77 650.765 1287.4 652.023C1288.04 653.281 1288.41 654.653 1288.51 656.058C1288.61 657.463 1288.42 658.874 1287.97 660.207C1287.51 661.541 1286.8 662.77 1285.86 663.823C1284.93 664.876 1283.79 665.732 1282.52 666.34V666.34Z" fill="#6C63FF"/>
<path d="M1272.52 708.06C1267.81 711.54 1247.89 713.06 1247.89 713.06C1247.89 713.06 1255.22 694.47 1259.89 690.99C1262.15 689.461 1264.91 688.863 1267.61 689.323C1270.3 689.782 1272.71 691.263 1274.33 693.456C1275.96 695.649 1276.67 698.385 1276.33 701.093C1275.99 703.801 1274.61 706.272 1272.49 707.99L1272.52 708.06Z" fill="#6C63FF"/>
<path d="M1239.78 625.49C1243.97 629.57 1263.51 633.79 1263.51 633.79C1263.51 633.79 1258.73 614.38 1254.51 610.31C1252.5 608.354 1249.79 607.278 1246.98 607.318C1244.18 607.359 1241.5 608.512 1239.54 610.525C1237.59 612.538 1236.51 615.246 1236.55 618.052C1236.59 620.859 1237.75 623.534 1239.76 625.49H1239.78Z" fill="#6C63FF"/>
<path d="M1228.69 674.46C1233.91 677.1 1253.82 675.28 1253.82 675.28C1253.82 675.28 1243.45 658.19 1238.27 655.56C1235.77 654.389 1232.92 654.238 1230.32 655.137C1227.71 656.036 1225.56 657.915 1224.32 660.375C1223.08 662.836 1222.84 665.683 1223.67 668.313C1224.49 670.943 1226.31 673.148 1228.73 674.46H1228.69Z" fill="#6C63FF"/>
<path d="M1224.45 723.54C1229.15 727.01 1249.08 728.54 1249.08 728.54C1249.08 728.54 1241.74 709.94 1237.08 706.46C1235.97 705.551 1234.69 704.876 1233.31 704.478C1231.93 704.079 1230.49 703.964 1229.06 704.141C1227.64 704.317 1226.27 704.781 1225.03 705.504C1223.79 706.228 1222.71 707.195 1221.86 708.348C1221 709.5 1220.39 710.815 1220.06 712.211C1219.73 713.607 1219.69 715.055 1219.93 716.468C1220.18 717.882 1220.71 719.23 1221.49 720.432C1222.28 721.634 1223.3 722.664 1224.49 723.46L1224.45 723.54Z" fill="#6C63FF"/>
<path d="M1265.79 578.59C1265.79 584.43 1255.2 601.39 1255.2 601.39C1255.2 601.39 1244.61 584.39 1244.61 578.59C1244.61 575.781 1245.73 573.088 1247.71 571.102C1249.7 569.116 1252.39 568 1255.2 568C1258.01 568 1260.7 569.116 1262.69 571.102C1264.67 573.088 1265.79 575.781 1265.79 578.59Z" fill="#6C63FF"/>
<path d="M1283.27 610.97C1280.09 615.88 1261.99 624.36 1261.99 624.36C1261.99 624.36 1262.32 604.36 1265.49 599.47C1266.23 598.27 1267.2 597.229 1268.35 596.409C1269.5 595.589 1270.8 595.007 1272.17 594.696C1273.55 594.385 1274.97 594.352 1276.36 594.599C1277.75 594.846 1279.07 595.368 1280.26 596.134C1281.44 596.9 1282.46 597.894 1283.26 599.059C1284.05 600.224 1284.6 601.536 1284.88 602.918C1285.16 604.3 1285.17 605.724 1284.89 607.107C1284.61 608.49 1284.06 609.803 1283.27 610.97V610.97Z" fill="#6C63FF"/>
<path d="M1282.52 666.34C1277.3 668.97 1257.4 667.15 1257.4 667.15C1257.4 667.15 1267.77 650.07 1272.99 647.43C1274.24 646.771 1275.6 646.367 1277 646.241C1278.41 646.115 1279.82 646.271 1281.16 646.699C1282.5 647.126 1283.75 647.817 1284.82 648.732C1285.89 649.646 1286.77 650.765 1287.4 652.023C1288.04 653.281 1288.41 654.653 1288.51 656.058C1288.61 657.463 1288.42 658.874 1287.97 660.207C1287.51 661.541 1286.8 662.77 1285.86 663.823C1284.93 664.876 1283.79 665.732 1282.52 666.34V666.34Z" fill="#6C63FF"/>
<path d="M1272.52 708.06C1267.81 711.54 1247.89 713.06 1247.89 713.06C1247.89 713.06 1255.22 694.47 1259.89 690.99C1262.15 689.461 1264.91 688.863 1267.61 689.323C1270.3 689.782 1272.71 691.263 1274.33 693.456C1275.96 695.649 1276.67 698.385 1276.33 701.093C1275.99 703.801 1274.61 706.272 1272.49 707.99L1272.52 708.06Z" fill="#6C63FF"/>
<path d="M1239.78 625.49C1243.97 629.57 1263.51 633.79 1263.51 633.79C1263.51 633.79 1258.73 614.38 1254.51 610.31C1252.5 608.354 1249.79 607.278 1246.98 607.318C1244.18 607.359 1241.5 608.512 1239.54 610.525C1237.59 612.538 1236.51 615.246 1236.55 618.052C1236.59 620.859 1237.75 623.534 1239.76 625.49H1239.78Z" fill="#6C63FF"/>
<path d="M1228.69 674.46C1233.91 677.1 1253.82 675.28 1253.82 675.28C1253.82 675.28 1243.45 658.19 1238.27 655.56C1235.77 654.389 1232.92 654.238 1230.32 655.137C1227.71 656.036 1225.56 657.915 1224.32 660.375C1223.08 662.836 1222.84 665.683 1223.67 668.313C1224.49 670.943 1226.31 673.148 1228.73 674.46H1228.69Z" fill="#6C63FF"/>
<path d="M1224.45 723.54C1229.15 727.01 1249.08 728.54 1249.08 728.54C1249.08 728.54 1241.74 709.94 1237.08 706.46C1235.97 705.551 1234.69 704.876 1233.31 704.478C1231.93 704.079 1230.49 703.964 1229.06 704.141C1227.64 704.317 1226.27 704.781 1225.03 705.504C1223.79 706.228 1222.71 707.195 1221.86 708.348C1221 709.5 1220.39 710.815 1220.06 712.211C1219.73 713.607 1219.69 715.055 1219.93 716.468C1220.18 717.882 1220.71 719.23 1221.49 720.432C1222.28 721.634 1223.3 722.664 1224.49 723.46L1224.45 723.54Z" fill="#6C63FF"/>
<path d="M1220.16 750.06C1220.16 750.06 1237.27 746.66 1241.83 742.13C1246.39 737.6 1266.93 729.67 1269.21 735.33C1271.49 740.99 1300.01 760.25 1280.62 763.65C1261.23 767.05 1234.99 768.18 1229.28 765.91C1223.57 763.64 1220.16 750.06 1220.16 750.06Z" fill="#A8A8A8"/>
<path opacity="0.2" d="M1280.62 761.54C1261.23 764.94 1234.99 766.07 1229.28 763.81C1224.94 762.08 1221.92 753.81 1220.73 749.94L1220.16 750.06C1220.16 750.06 1223.58 763.65 1229.28 765.91C1234.98 768.17 1261.28 767.05 1280.62 763.65C1286.22 762.65 1287.82 760.36 1287.21 757.45C1286.74 759.34 1284.79 760.81 1280.62 761.54Z" fill="black"/>
<path d="M162.083 744C162.083 744 167.583 751.19 159.553 762C151.523 772.81 144.903 782 147.553 788.76C147.553 788.76 159.663 768.62 169.553 768.34C179.443 768.06 172.933 756.12 162.083 744Z" fill="#6C63FF"/>
<path opacity="0.1" d="M162.083 744C162.563 744.694 162.943 745.451 163.213 746.25C172.833 757.56 177.953 768.11 168.703 768.37C160.093 768.67 149.783 784.02 147.283 787.91C147.364 788.21 147.464 788.504 147.583 788.79C147.583 788.79 159.693 768.65 169.583 768.37C179.473 768.09 172.933 756.12 162.083 744Z" fill="black"/>
<path d="M253.303 718.16C253.303 720.69 253.013 722.74 252.663 722.74C252.313 722.74 252.033 720.69 252.033 718.16C252.033 715.63 252.383 716.82 252.733 716.82C253.083 716.82 253.303 715.67 253.303 718.16Z" fill="#FFD037"/>
<path d="M256.783 721.18C254.563 722.39 252.623 723.12 252.463 722.81C252.303 722.5 253.953 721.27 256.173 720.06C258.393 718.85 257.523 719.73 257.693 720.06C257.863 720.39 259.023 719.97 256.783 721.18Z" fill="#FFD037"/>
<path d="M133.073 744C133.073 744 127.573 751.19 135.603 762C143.633 772.81 150.253 782 147.603 788.76C147.603 788.76 135.483 768.62 125.603 768.34C115.723 768.06 122.223 756.12 133.073 744Z" fill="#6C63FF"/>
<path opacity="0.1" d="M133.073 744C132.594 744.694 132.213 745.451 131.943 746.25C122.323 757.56 117.203 768.11 126.453 768.37C135.063 768.62 145.393 784.02 147.873 787.91C147.792 788.208 147.695 788.502 147.583 788.79C147.583 788.79 135.463 768.67 125.603 768.37C115.743 768.07 122.223 756.12 133.073 744Z" fill="black"/>
<path d="M122.854 753.16C122.854 755.69 123.144 757.74 123.494 757.74C123.844 757.74 124.124 755.69 124.124 753.16C124.124 750.63 123.774 751.82 123.424 751.82C123.074 751.82 122.854 750.67 122.854 753.16Z" fill="#FFD037"/>
<path d="M119.353 756.18C121.573 757.39 123.513 758.12 123.673 757.81C123.833 757.5 122.183 756.27 119.963 755.06C117.743 753.85 118.613 754.73 118.443 755.06C118.273 755.39 117.133 754.97 119.353 756.18Z" fill="#FFD037"/>
<path d="M124.604 787.85C124.604 787.85 139.964 787.38 144.604 784.09C149.244 780.8 168.234 776.85 169.384 782.14C170.534 787.43 192.464 808.43 175.124 808.57C157.784 808.71 134.784 805.87 130.204 803.06C125.624 800.25 124.604 787.85 124.604 787.85Z" fill="#A8A8A8"/>
<path opacity="0.2" d="M175.424 806.73C158.084 806.87 135.134 804.03 130.514 801.22C126.994 799.07 125.594 791.38 125.124 787.83H124.604C124.604 787.83 125.604 800.22 130.204 803.04C134.804 805.86 157.784 808.67 175.114 808.57C180.114 808.57 181.844 806.75 181.754 804.11C181.054 805.67 179.144 806.67 175.424 806.73Z" fill="black"/>
<defs>
<clipPath id="clip0">
<rect width="757.964" height="743.732" fill="white" transform="translate(455)"/>
</clipPath>
</defs>
</svg>
